<svg width="0" height="0" version="1.1" xmlns="http://www.w3.org/2000/svg" xmlns:xlink="http://www.w3.org/1999/xlink">
<defs>
<symbol id="icon-add-to-my-bag" viewBox="0 0 1024 1024">
	<title>add-to-my-bag</title>
	<path class="path1" d="M833.717 128.542c-8.072-7.529-19.697-10.059-30.057-6.505l-180.706 60.235c-12.288 4.096-20.6 15.601-20.6 28.552v331.294h-180.706v-451.765c0-12.951-8.312-24.456-20.6-28.552l-180.706-60.235c-10.36-3.494-21.926-1.024-30.057 6.505-8.011 7.529-11.384 18.854-8.614 29.515l19.215 75.294c10.3 39.936 46.261 67.825 87.522 67.825h73.005v361.412h-90.353c-16.625 0-30.118 13.493-30.118 30.118v451.765h60.235v-301.176h421.647v301.176h60.235v-451.765c0-16.625-13.432-30.118-30.118-30.118h-90.353v-240.941h73.065c41.141 0 77.101-28.13 87.462-68.427l19.215-74.632c2.771-10.722-0.542-22.046-8.614-29.576v0zM301.176 602.353h421.647v60.235h-421.647v-60.235z"></path>
</symbol>
<symbol id="icon-add-to-my-wishlist" viewBox="0 0 1024 1024">
	<title>add-to-my-wishlist</title>
	<path class="path1" d="M993.882 180.706h-197.993c10.601-17.769 17.288-38.069 17.288-60.235 0-66.44-54.031-120.471-120.471-120.471-92.22 0-149.082 60.416-180.706 121.675-31.624-61.259-88.486-121.675-180.706-121.675-66.44 0-120.471 54.031-120.471 120.471 0 22.167 6.686 42.466 17.288 60.235h-197.993c-16.625 0-30.118 13.493-30.118 30.118v240.941c0 16.625 13.493 30.118 30.118 30.118h30.118v451.765c0 16.625 13.493 30.118 30.118 30.118h843.294c16.685 0 30.118-13.493 30.118-30.118v-451.765h30.118c16.685 0 30.118-13.493 30.118-30.118v-240.941c0-16.625-13.432-30.118-30.118-30.118v0zM421.647 240.941h180.706v662.769h-180.706v-662.769zM692.706 60.235c33.19 0 60.235 27.046 60.235 60.235s-27.046 60.235-60.235 60.235h-141.252c16.264-46.080 55.657-120.471 141.252-120.471v0zM271.059 120.471c0-33.19 27.046-60.235 60.235-60.235 85.594 0 124.988 74.391 141.252 120.471h-141.252c-33.19 0-60.235-27.046-60.235-60.235v0zM60.235 240.941h301.176v180.706h-301.176v-180.706zM120.471 481.882h240.941v421.647h-240.941v-421.647zM662.588 481.882h240.941v421.647h-240.941v-421.647zM662.588 240.941h301.176v180.706h-301.176v-180.706z"></path>
</symbol>
<symbol id="icon-archive" viewBox="0 0 1024 1024">
	<title>archive</title>
	<path class="path1" d="M370.266 352.617c-11.806-11.806-11.806-30.84 0-42.647 11.746-11.746 30.78-11.746 42.586 0l69.030 69.090v-288.708c0-16.625 13.493-30.118 30.118-30.118 16.685 0 30.118 13.493 30.118 30.118v288.708l69.090-69.090c11.746-11.746 30.78-11.746 42.586 0 11.746 11.806 11.746 30.84 0 42.647l-120.471 120.471c-5.903 5.843-13.613 8.794-21.323 8.794s-15.42-2.952-21.263-8.794l-120.471-120.471zM1024 632.471v301.176c0 16.625-13.432 30.118-30.118 30.118h-963.765c-16.625 0-30.118-13.493-30.118-30.118v-301.176c0-8.011 3.192-15.661 8.855-21.323l180.706-180.706c5.602-5.602 13.252-8.794 21.263-8.794h120.471c16.685 0 30.118 13.493 30.118 30.118s-13.432 30.118-30.118 30.118h-108.002l-120.471 120.471h288.708c16.685 0 30.118 13.493 30.118 30.118 0 49.815 40.538 90.353 90.353 90.353s90.353-40.538 90.353-90.353c0-16.625 13.493-30.118 30.118-30.118h288.708l-120.471-120.471h-108.002c-16.625 0-30.118-13.493-30.118-30.118s13.493-30.118 30.118-30.118h120.471c8.011 0 15.661 3.192 21.323 8.794l180.706 180.706c5.602 5.662 8.794 13.312 8.794 21.323v0zM963.765 903.529v-240.941h-304.188c-14.035 68.668-74.812 120.471-147.576 120.471-72.704 0-133.542-51.802-147.516-120.471h-304.248v240.941h903.529z"></path>
</symbol>
<symbol id="icon-birthday" viewBox="0 0 1024 1024">
	<title>birthday</title>
	<path class="path1" d="M783.059 150.588c0-35.057-28.19-150.588-90.353-150.588s-90.353 115.531-90.353 150.588c0 49.815 40.538 90.353 90.353 90.353s90.353-40.538 90.353-90.353v0zM692.706 180.706c-16.625 0-30.118-13.493-30.118-30.118 0-24.877 17.227-73.367 30.118-87.823 12.89 14.456 30.118 62.946 30.118 87.823 0 16.625-13.493 30.118-30.118 30.118v0zM783.059 438.031v-166.972c0-16.625-13.493-30.118-30.118-30.118h-120.471c-16.625 0-30.118 13.493-30.118 30.118v158.298l-580.909 174.261c-12.71 3.795-21.444 15.541-21.444 28.853v361.412c0 16.625 13.493 30.118 30.118 30.118h963.765c16.625 0 30.118-13.493 30.118-30.118v-361.412c0-89.208-98.545-163.177-240.941-194.44v0zM662.588 301.176h60.235v180.706h-60.235v-180.706zM602.353 492.243v19.757c0 16.625 13.493 30.118 30.118 30.118h120.471c16.625 0 30.118-13.493 30.118-30.118v-12.529c88.907 21.986 151.251 61.681 172.273 102.882h-719.992l367.014-110.11zM60.235 843.294h903.529v120.471h-903.529v-120.471zM60.235 662.588h903.529v120.471h-903.529v-120.471z"></path>
</symbol>
<symbol id="icon-tt-item-contest-sweep" viewBox="0 0 1024 1024">
	<title>tt-item-contest-sweep</title>
	<path class="path1" d="M993.882 120.471h-150.588v-90.353c0-16.625-13.432-30.118-30.118-30.118h-602.353c-16.625 0-30.118 13.493-30.118 30.118v90.353h-150.588c-16.625 0-30.118 13.493-30.118 30.118v120.471c0 137.035 79.752 249.434 182.573 267.384 8.855 74.089 56.079 138.722 125.952 168.659l86.197 36.984c2.409 23.733-4.698 47.465-20.058 66.138-17.227 21.022-42.647 33.069-69.813 33.069h-33.792c-16.625 0-30.118 13.493-30.118 30.118v90.353h-30.118c-16.625 0-30.118 13.493-30.118 30.118s13.493 30.118 30.118 30.118h602.353c16.685 0 30.118-13.493 30.118-30.118s-13.432-30.118-30.118-30.118h-30.118v-90.353c0-16.625-13.432-30.118-30.118-30.118h-33.732c-27.226 0-52.646-12.047-69.873-33.069-15.3-18.673-22.468-42.406-20.058-66.138l86.257-36.984c69.813-29.937 117.037-94.569 125.892-168.659 102.822-17.95 182.573-130.349 182.573-267.384v-120.471c0-16.625-13.432-30.118-30.118-30.118v0zM240.941 60.235h542.118v60.235h-542.118v-60.235zM60.235 271.059v-90.353h120.471v296.9c-68.608-19.576-120.471-104.749-120.471-206.547v0zM783.059 513.325c0 60.296-35.84 114.628-91.256 138.421l-101.316 43.43c-9.096 3.855-15.721 12.047-17.649 21.745l-1.325 6.505c-8.855 44.393 2.53 89.931 31.262 124.988 28.672 35.057 71.138 55.115 116.435 55.115h3.614v60.235h-421.647v-60.235h3.674c45.297 0 87.703-20.058 116.435-55.115 28.672-35.057 40.056-80.595 31.202-124.988l-1.325-6.505c-1.928-9.698-8.493-17.89-17.649-21.745l-101.316-43.43c-55.416-23.793-91.256-78.125-91.256-138.421v-332.619h542.118v332.619zM963.765 271.059c0 101.798-51.802 186.97-120.471 206.547v-296.9h120.471v90.353z"></path>
</symbol>
</defs>
</svg>
